<svg xmlns="http://www.w3.org/2000/svg" viewBox="0 0 80 80"><defs><style>.a,.b{fill:none}.b{stroke:#676767;stroke-linejoin:round;stroke-miterlimit:22.926;stroke-width:2.995px;fill-rule:evenodd}</style></defs><path class="a" d="M0 0h80v80H0z"/><path class="b" d="M40.008 9.815c5.768.048 14.69.462 19.12 2.772 2.517 1.322 4.86 6.1 7.5 11.806l3.043-1.37H77.1v5.624h-8.508c1.689 3.6 3.3 6.867 4.732 8.6 1.338 1.625 3.011 2.964 3.011 6.166v25.434A1.346 1.346 0 0 1 75 70.185h-8.989a1.346 1.346 0 0 1-1.338-1.338v-4.206H15.328v4.206a1.346 1.346 0 0 1-1.338 1.338H5a1.333 1.333 0 0 1-1.322-1.338V43.418c0-3.2 1.657-4.541 3.011-6.166 1.434-1.737 3.027-5 4.716-8.6H2.9v-5.629h7.425l3.059 1.37c2.629-5.7 4.971-10.484 7.489-11.806 4.429-2.31 13.352-2.725 19.136-2.772zM16.029 57.279H62.92M40.008 16c-4.6.032-11.36.351-15.152 1.561-2.2.7-5.115 7.887-7.775 13.687H62.92c-2.661-5.8-5.577-12.985-7.759-13.687C51.368 16.347 44.6 16.029 40.008 16zm22.147 24.9a4.445 4.445 0 1 1-4.445 4.445 4.447 4.447 0 0 1 4.445-4.445zm-44.31 0a4.445 4.445 0 1 0 4.461 4.445 4.447 4.447 0 0 0-4.461-4.445z"/></svg>