<svg xmlns="http://www.w3.org/2000/svg" viewBox="0 0 80 80"><defs><style>.a,.b{fill:none}.b{stroke:#676767;stroke-miterlimit:22.926;stroke-width:2.995px;fill-rule:evenodd}</style></defs><path class="a" d="M0 0h80v80H0z"/><path class="b" d="M40.518 4.143a15.7 15.7 0 1 1-15.71 15.694 15.694 15.694 0 0 1 15.71-15.694zm15.136 35.929a9.922 9.922 0 0 1 8.859 9.828v22.484a3.2 3.2 0 0 1-3.187 3.187H19.693a3.2 3.2 0 0 1-3.187-3.187V49.9a9.91 9.91 0 0 1 8.859-9.831L40.5 44.613l15.152-4.541zM24.808 19.837c5.832-.494 9.209-6.883 13.7-9.719-.781 7.807 9.942 10.564 17.7 9.719M40.5 75.571v-17.75m15.154-17.749c0 9.8-6.787 17.749-15.152 17.749s-15.137-7.95-15.137-17.749M44.66 62.936h3.585m-3.585 6.835h3.585"/></svg>