<svg xmlns="http://www.w3.org/2000/svg" viewBox="0 0 80 80"><defs><style>.a,.b{fill:none}.b{stroke:#676767;stroke-miterlimit:22.926;stroke-width:2.995px;fill-rule:evenodd}</style></defs><path class="a" d="M0 0h80v80H0z"/><path class="b" d="M4.413 75.587h35.595V4.413H4.413v71.174zm35.595 0h35.579v-49.6H40.008zm-28.472-13.56h7.122v-7.122h-7.122zm14.228 0h7.122v-7.122h-7.122v7.122zM11.536 47.56h7.122v-7.122h-7.122zm14.228 0h7.122v-7.122h-7.122v7.122zM11.536 33.109h7.122v-7.122h-7.122zm14.228 0h7.122v-7.122h-7.122v7.122zM11.536 18.642h7.122v-7.106h-7.122zm14.228 0h7.122v-7.106h-7.122v7.106zm21.35 28.918h7.122v-7.106h-7.122zm0 14.467h7.122v-7.122h-7.122zm14.244 0h7.106v-7.122h-7.106v7.122zm0-14.467h7.106v-7.106h-7.106v7.106zm-21.35-14.451h35.579"/></svg>