<svg xmlns="http://www.w3.org/2000/svg" viewBox="0 0 40 40"><defs><style>.cls-1,.cls-5{fill:#fff}.cls-2{clip-path:url(#clip-path)}.cls-3{fill:none}.cls-4{fill:#fec76c}.cls-4,.cls-5{fill-rule:evenodd}</style><clipPath id="clip-path"><path id="Rectangle_125" data-name="Rectangle 125" class="cls-1" transform="translate(1160 1300)" d="M0 0h40v40H0z"/></clipPath></defs><g id="Mask_Group_20" data-name="Mask Group 20" class="cls-2" transform="translate(-1160 -1300)"><g id="Icon_20_18" transform="translate(1160 1300)"><path id="Rectangle_124" data-name="Rectangle 124" class="cls-3" d="M0 0h40v40H0z"/><path id="Path_63" data-name="Path 63" class="cls-4" d="M30.8 20.155a13.511 13.511 0 0 0 1.757-6.408 12.558 12.558 0 1 0-25.116 0A12.43 12.43 0 0 0 9.2 20.155l10.749 18.6 10.851-18.6z"/><path id="Path_64" data-name="Path 64" class="cls-5" d="M19.948 4.858a8.738 8.738 0 0 1 6.3 2.584 9.178 9.178 0 0 1 2.584 6.3 8.927 8.927 0 0 1-2.584 6.2 8.738 8.738 0 0 1-6.3 2.584 8.5 8.5 0 0 1-6.2-2.584 8.5 8.5 0 0 1-2.584-6.2 8.738 8.738 0 0 1 2.584-6.3 8.5 8.5 0 0 1 6.2-2.584zm3.721 4.961a6.267 6.267 0 0 1-2.481 3.1 8.733 8.733 0 0 1-2.788 1.345 12.943 12.943 0 0 0 4.236 1.136 7.236 7.236 0 0 0 1.654-1.447 6.051 6.051 0 0 0 1.033-1.753 4.616 4.616 0 0 0-1.654-2.481v.1zm-6.512 3.824a8.754 8.754 0 0 0 3.514-1.55 7.241 7.241 0 0 0 1.034-.827 9.1 9.1 0 0 1-1.757.207 5.875 5.875 0 0 1-2.481-.517 2.412 2.412 0 0 1-1.24-1.24 4.685 4.685 0 0 0-1.344 1.757c.207.207.31.413.517.62a6.511 6.511 0 0 0 1.757 1.55zm5.581-4.134v-.1c0-.31-.207-.517-.62-.724a.38.38 0 0 1-.31-.1 4.828 4.828 0 0 0-1.757-.31h-.1a4.828 4.828 0 0 0-1.757.31c-.1 0-.207.1-.31.1-.413.207-.724.517-.724.724a.554.554 0 0 0 .31.413 7.5 7.5 0 0 1 .93-.522 8.033 8.033 0 0 1 1.652-.2 4.284 4.284 0 0 1 1.654.207 6.137 6.137 0 0 1 .827.413.222.222 0 0 0 .206-.211zm-.827.62c-.1-.1-.31-.1-.413-.207a6.1 6.1 0 0 0-1.447-.207 6.1 6.1 0 0 0-1.447.207c-.207.1-.31.207-.517.207a4.937 4.937 0 0 0 1.86.413 5.047 5.047 0 0 0 1.965-.413zm-7.442.1a6.009 6.009 0 0 1 1.86-1.757 3.818 3.818 0 0 1 1.447-.724 4.794 4.794 0 0 1 2.171-.413h.1a6.871 6.871 0 0 1 2.171.31 6.924 6.924 0 0 1 1.86 1.137 5.664 5.664 0 0 1 1.654 1.86 5.823 5.823 0 0 0 0-1.344c-.207-.207-.413-.517-.62-.724a7.092 7.092 0 0 0-5.168-2.067 6.855 6.855 0 0 0-5.065 2.067c-.1.1-.207.1-.207.207a3.018 3.018 0 0 0-.207.93zm12.61 1.86a8.632 8.632 0 0 1-1.55 2.894 10.6 10.6 0 0 1-4.341 3 10.459 10.459 0 0 1-4.961.62 12.09 12.09 0 0 1-2.067-.517 4.775 4.775 0 0 0 .724.724 6.941 6.941 0 0 0 5.065 2.171 7.177 7.177 0 0 0 5.168-2.171 6.855 6.855 0 0 0 2.067-5.065 8.355 8.355 0 0 0-.1-1.654zm-14.264 3a4.99 4.99 0 0 0 3.618 1.86 8.732 8.732 0 0 0 4.238-.517h.1a17.84 17.84 0 0 1-3.303-1.132 10.312 10.312 0 0 1-3.1-2.377 4.039 4.039 0 0 1-1.034-1.964 6.154 6.154 0 0 0-.62 2.791c0 .413.1.93.1 1.344z"/></g></g></svg>