<?xml version="1.0" standalone="no"?>
<!DOCTYPE svg PUBLIC "-//W3C//DTD SVG 1.1//EN" "http://www.w3.org/Graphics/SVG/1.1/DTD/svg11.dtd" >
<svg xmlns="http://www.w3.org/2000/svg">
<metadata>Generated by IcoMoon</metadata>
<defs>
<font id="Aromat_doma" horiz-adv-x="1024">
<font-face units-per-em="1024" ascent="960" descent="-64" />
<missing-glyph horiz-adv-x="1024" />
<glyph unicode="&#x20;" horiz-adv-x="512" d="" />
<glyph unicode="&#x231a;" glyph-name="Icon_20_14" d="M512.741 900.724c124.48 0 237.106-50.385 320.093-131.89 81.505-82.987 131.89-195.612 131.89-321.575 0-124.48-50.385-237.106-131.89-320.093-82.987-81.505-195.612-131.89-320.093-131.89-125.962 0-238.588 50.385-321.575 131.89-81.505 82.987-131.89 195.612-131.89 320.093 0 125.962 50.385 238.588 131.89 321.575 82.987 81.505 195.612 131.89 321.575 131.89zM795.786 731.786c-72.614 72.614-173.384 118.553-283.045 118.553-111.143 0-211.913-45.939-284.527-118.553s-118.553-173.384-118.553-284.527c0-109.661 45.939-210.431 118.553-283.045s173.384-118.553 284.527-118.553c109.661 0 210.431 45.939 283.045 118.553s118.553 173.384 118.553 283.045c0 111.143-45.939 211.913-118.553 284.527zM486.067 696.22c0 13.337 11.855 25.192 26.674 25.192 13.337 0 25.192-11.855 25.192-25.192v-222.287h161.528c14.819 0 26.674-11.855 26.674-26.674 0-13.337-11.855-25.192-26.674-25.192h-186.721c-14.819 0-26.674 11.855-26.674 25.192v248.961zM512.741 807.363c97.806 0 188.203-40.012 253.407-105.216s105.216-155.601 105.216-254.889c0-97.806-40.012-188.203-105.216-253.407s-155.601-105.216-253.407-105.216c-99.288 0-189.685 40.012-254.889 105.216s-105.216 155.601-105.216 253.407c0 99.288 40.012 189.685 105.216 254.889s155.601 105.216 254.889 105.216zM730.582 665.1c-56.313 56.313-133.372 90.397-217.841 90.397-85.951 0-163.010-34.084-217.841-90.397-56.313-54.831-90.397-131.89-90.397-217.841 0-84.469 34.084-161.528 90.397-217.841 54.831-54.831 131.89-88.915 217.841-88.915 84.469 0 161.528 34.084 217.841 88.915 54.831 56.313 88.915 133.372 88.915 217.841 0 85.951-34.084 163.010-88.915 217.841z" />
<glyph unicode="&#x23e9;" glyph-name="Icon_20_26" d="M326.152 926.209c-8.815 10.284-24.976 10.284-35.26 1.469s-11.753-24.976-2.938-35.26l395.202-443.684-395.202-445.154c-8.815-10.284-7.346-26.445 2.938-35.26s26.445-8.815 35.26 1.469l409.894 461.314c8.815 10.284 8.815 23.506 0 33.791l-409.894 461.314z" />
<glyph unicode="&#x23ea;" glyph-name="Icon_20_25" d="M697.848 926.209c8.815 10.284 24.976 10.284 35.26 1.469s11.753-24.976 2.938-35.26l-395.202-443.684 395.202-445.154c8.815-10.284 7.346-26.445-2.938-35.26s-26.445-8.815-35.26 1.469l-409.894 461.314c-7.346 10.284-8.815 23.506 0 33.791l409.894 461.314z" />
<glyph unicode="&#x23eb;" glyph-name="Icon_20_23" d="M33.791 262.152c-10.284-8.815-10.284-24.976-1.469-35.26s24.976-11.753 35.26-2.938l445.154 395.202 443.684-395.202c10.284-8.815 26.445-7.346 35.26 2.938s8.815 26.445-1.469 35.26l-461.314 409.894c-8.815 8.815-23.506 8.815-33.791 0l-461.314-409.894z" />
<glyph unicode="&#x23ec;" glyph-name="Icon_20_24" d="M33.791 633.848c-10.284 8.815-10.284 24.976-1.469 35.26 8.815 11.753 24.976 11.753 35.26 2.938l445.154-395.202 443.684 395.202c10.284 8.815 26.445 8.815 35.26-2.938 8.815-10.284 8.815-26.445-1.469-35.26l-461.314-409.894c-8.815-7.346-23.506-8.815-33.791 0l-461.314 409.894z" />
<glyph unicode="&#x1f310;" glyph-name="Icon_20_18" d="M511.259 922.952c131.89 0 250.443-53.349 336.394-139.3s139.3-204.504 139.3-334.912c0-131.89-53.349-250.443-139.3-336.394s-204.504-139.3-336.394-139.3c-130.408 0-248.961 53.349-334.912 139.3s-139.3 204.504-139.3 336.394c0 130.408 53.349 248.961 139.3 334.912s204.504 139.3 334.912 139.3zM812.087 748.087c-50.385 50.385-114.107 87.433-183.757 108.179 17.783-22.229 32.602-48.903 45.939-80.023 11.855-26.674 22.229-54.831 29.638-85.951h1.482c45.939 10.373 88.915 23.711 122.999 40.012-4.446 5.928-10.373 11.855-16.301 17.783zM935.085 473.933c-4.446 80.023-31.12 152.637-74.096 214.877-40.012-20.747-90.397-37.048-145.227-48.903 10.373-50.385 16.301-106.698 17.783-165.974h201.54zM812.087 147.913c5.928 5.928 11.855 11.855 16.301 17.783-34.084 16.301-77.059 29.638-122.999 40.012h-1.482c-7.41-31.12-17.783-59.276-29.638-85.951-13.337-31.12-28.156-57.795-45.939-80.023 69.65 20.747 133.372 57.795 183.757 108.179zM860.99 207.19c42.975 62.24 69.65 134.854 74.096 214.877h-201.54c-1.482-59.276-7.41-114.107-17.783-165.974 54.831-11.855 105.216-28.156 145.227-48.903zM211.913 147.913c50.385-50.385 114.107-87.433 183.757-108.179-17.783 22.229-32.602 48.903-45.939 80.023-11.855 26.674-22.229 54.831-29.638 85.951h-1.482c-45.939-10.373-88.915-23.711-122.999-40.012 4.446-5.928 10.373-11.855 16.301-17.783zM88.915 422.067c4.446-80.023 31.12-152.637 74.096-214.877 40.012 20.747 90.397 37.048 145.227 48.903-10.373 51.867-16.301 106.698-17.783 165.974h-201.54zM211.913 748.087c-5.928-5.928-11.855-11.855-16.301-17.783 34.084-16.301 77.059-29.638 122.999-40.012h1.482c7.41 31.12 17.783 59.276 29.638 85.951 13.337 31.12 29.638 57.795 45.939 80.023-69.65-20.747-133.372-57.795-183.757-108.179zM163.010 688.81c-42.975-62.24-69.65-134.854-74.096-214.877h201.54c1.482 59.276 7.41 115.589 17.783 165.974-54.831 11.855-105.216 28.156-145.227 48.903zM358.622 264.984c40.012 5.928 82.987 10.373 127.444 11.855v145.227h-145.227c1.482-56.313 7.41-108.179 17.783-157.082zM486.067 224.973c-40.012 0-78.541-4.446-115.589-8.891 7.41-28.156 16.301-53.349 25.192-75.577 25.192-57.795 57.795-97.806 90.397-111.143v195.612zM537.933 276.839c44.457-1.482 87.433-5.928 127.444-11.855 10.373 48.903 16.301 100.77 17.783 157.082h-145.227v-145.227zM653.522 216.081c-35.566 4.446-75.577 8.891-115.589 8.891v-195.612c34.084 13.337 65.204 53.349 90.397 111.143 8.891 22.229 17.783 47.421 25.192 75.577zM340.839 473.933h145.227v145.227c-44.457 1.482-87.433 5.928-127.444 11.855-10.373-48.903-16.301-100.77-17.783-157.082zM537.933 473.933h145.227c-1.482 56.313-7.41 108.179-17.783 157.082-40.012-5.928-82.987-10.373-127.444-11.855v-145.227zM395.67 755.496c-8.891-22.229-17.783-47.421-25.192-74.096 37.048-5.928 75.577-8.891 115.589-10.373v195.612c-32.602-13.337-65.204-53.349-90.397-111.143zM628.33 755.496c-25.192 57.795-56.313 97.806-90.397 111.143v-195.612c40.012 1.482 80.023 4.446 115.589 10.373-7.41 26.674-16.301 51.867-25.192 74.096z" />
<glyph unicode="&#x1f347;" glyph-name="Icon_20_19" d="M257.852 484.307h4.446c-1.482 2.964-1.482 7.41-2.964 10.373v145.227c1.482 8.891 5.928 17.783 10.373 23.711 7.41 7.41 16.301 11.855 26.674 11.855 31.12-2.964 63.722-4.446 94.842-7.41-11.855 13.337-22.229 28.156-29.638 44.457-8.891 20.747-14.819 42.975-14.819 66.686 0 45.939 19.265 87.433 48.903 117.071s71.132 48.903 117.071 48.903c44.457 0 85.951-19.265 115.589-48.903s48.903-71.132 48.903-117.071c0-23.711-5.928-45.939-14.819-66.686-7.41-16.301-17.783-31.12-29.638-44.457 31.12 2.964 63.722 4.446 94.842 7.41 10.373 0 19.265-4.446 26.674-11.855 4.446-5.928 8.891-14.819 10.373-23.711v-145.227c-1.482-2.964-1.482-7.41-2.964-10.373h4.446c13.337 0 26.674-5.928 35.566-14.819s14.819-22.229 14.819-35.566v-432.718c0-13.337-5.928-25.192-14.819-35.566-8.891-8.891-22.229-14.819-35.566-14.819h-508.295c-13.337 0-25.192 5.928-35.566 14.819-8.891 10.373-14.819 22.229-14.819 35.566v432.718c0 13.337 5.928 26.674 14.819 35.566 10.373 8.891 22.229 14.819 35.566 14.819zM764.666 432.44h-505.331v-429.754h505.331v429.754zM428.272 702.148h167.456c7.41 8.891 14.819 19.265 20.747 31.12 5.928 14.819 8.891 29.638 8.891 45.939 0 32.602-11.855 60.758-32.602 81.505s-48.903 32.602-80.023 32.602c-32.602 0-60.758-11.855-81.505-32.602s-32.602-48.903-32.602-81.505c0-16.301 2.964-31.12 8.891-45.939 5.928-11.855 13.337-22.229 20.747-31.12zM561.644 611.751h-99.288v-88.915h99.288v88.915zM392.706 518.391l17.783 1.482v94.842l-99.288 8.891v-112.625l81.505 7.41zM613.511 519.873l99.288-8.891v112.625l-99.288-8.891v-94.842zM364.55 392.428h321.575v-291.936h-346.767v291.936h25.192zM634.258 342.043h-244.515v-189.685h244.515v189.685z" />
<glyph unicode="&#x1f349;" glyph-name="Icon_20_20" d="M327.502 694.738h42.975v244.515h283.045v-244.515h42.975c41.493 0 81.505-17.783 108.179-45.939 28.156-28.156 45.939-66.686 45.939-108.179v-429.754c0-42.975-17.783-81.505-45.939-109.661-28.156-26.674-66.686-44.457-108.179-44.457h-368.996c-41.493 0-81.505 16.301-108.179 44.457-28.156 28.156-45.939 66.686-45.939 109.661v429.754c0 41.493 17.783 80.023 45.939 108.179 26.674 28.156 66.686 45.939 108.179 45.939zM420.863 694.738h182.275v194.13h-182.275v-194.13zM696.498 642.871h-368.996c-28.156 0-53.349-10.373-72.614-29.638s-31.12-44.457-31.12-72.614v-429.754c0-28.156 11.855-54.831 31.12-72.614 19.265-19.265 44.457-31.12 72.614-31.12h368.996c28.156 0 53.349 11.855 72.614 31.12 19.265 17.783 31.12 44.457 31.12 72.614v429.754c0 28.156-11.855 53.349-31.12 72.614s-44.457 29.638-72.614 29.638zM333.43 481.343h382.333v-312.683h-407.525v312.683h25.192zM665.378 430.958h-306.755v-210.431h306.755v210.431z" />
<glyph unicode="&#x1f34c;" glyph-name="Icon_20_21" d="M389.742 668.064h22.229v82.987h-22.229c-13.337 0-26.674 5.928-37.048 14.819-8.891 8.891-14.819 22.229-14.819 37.048v94.842c0 14.819 5.928 28.156 14.819 37.048 10.373 8.891 23.711 14.819 37.048 14.819h244.515c13.337 0 26.674-5.928 37.048-14.819 8.891-8.891 14.819-22.229 14.819-37.048v-94.842c0-14.819-5.928-28.156-14.819-37.048-10.373-8.891-23.711-14.819-37.048-14.819h-22.229v-82.987h22.229c13.337 0 26.674-5.928 37.048-16.301 8.891-8.891 14.819-22.229 14.819-35.566v-617.957c0-14.819-5.928-28.156-14.819-37.048-10.373-8.891-23.711-14.819-37.048-14.819h-244.515c-13.337 0-26.674 5.928-37.048 14.819-8.891 8.891-14.819 22.229-14.819 37.048v617.957c0 13.337 5.928 26.674 14.819 35.566 10.373 10.373 23.711 16.301 37.048 16.301zM463.838 668.064h96.324v82.987h-96.324v-82.987zM634.258 616.197h-244.515v-619.438h244.515v619.438zM634.258 899.242h-244.515v-97.806h244.515v97.806z" />
<glyph unicode="&#x1f381;" glyph-name="Icon_20_13" d="M191.166 499.126h219.323v158.564h-262.298v-158.564h42.975zM462.356 499.126h93.36v158.564h-93.36v-158.564zM607.583 499.126h268.226v158.564h-268.226v-158.564zM806.159 448.741h-198.576v-447.537h198.576v447.537zM555.716 448.741h-93.36v-447.537h93.36v447.537zM410.489 448.741h-192.648v-447.537h192.648v447.537zM858.026 448.741v-499.404h-692.052v499.404h-68.168v260.816h99.288c-7.41 7.41-13.337 16.301-17.783 25.192-20.747 42.975-14.819 94.842 8.891 134.854 23.711 41.493 65.204 74.096 112.625 75.577 48.903 2.964 103.734-23.711 148.191-102.252l63.722-108.179 62.24 108.179c44.457 78.541 99.288 105.216 148.191 102.252 47.421-1.482 88.915-34.084 112.625-75.577 23.711-40.012 31.12-91.878 8.891-134.854-4.446-8.891-10.373-17.783-17.783-25.192h99.288v-260.816h-68.168zM343.803 709.557h124.48l-62.24 106.698c-34.084 59.276-71.132 80.023-102.252 78.541-29.638-1.482-54.831-22.229-71.132-50.385-16.301-26.674-20.747-60.758-7.41-85.951 13.337-28.156 50.385-48.903 118.553-48.903zM555.716 709.557h124.48c68.168 0 105.216 20.747 118.553 48.903 13.337 25.192 8.891 59.276-7.41 85.951-16.301 28.156-41.493 48.903-71.132 50.385-31.12 1.482-68.168-19.265-102.252-78.541l-62.24-106.698z" />
<glyph unicode="&#x1f3e0;" glyph-name="Icon_20_22" d="M808.635 630.277c1.161-1.161 2.322-2.322 4.644-3.483l104.49-88.236c10.449-9.288 12.771-25.542 3.483-35.991s-25.542-11.61-35.991-3.483l-65.016 55.728v-506.195c0-13.932-11.61-25.542-25.542-25.542h-565.406c-13.932 0-25.542 11.61-25.542 25.542v506.195l-65.016-55.728c-11.61-8.127-26.703-6.966-35.991 3.483s-8.127 26.703 3.483 35.991l388.934 327.401c10.449 8.127 24.381 8.127 33.669 0l279.8-235.683zM769.161 74.159v523.61l-257.741 215.946-256.58-215.946v-523.61h131.193v321.596c0 13.932 10.449 25.542 25.542 25.542h200.853c13.932 0 25.542-11.61 25.542-25.542v-321.596h131.193zM408.091 525.787c-13.932 0-24.381 11.61-24.381 25.542s10.449 25.542 24.381 25.542h204.336c13.932 0 25.542-11.61 25.542-25.542s-11.61-25.542-25.542-25.542h-204.336zM435.955 74.159h150.93v297.215h-150.93v-297.215z" />
<glyph unicode="&#x1f3ea;" glyph-name="Icon_20_11" d="M143.745 856.266h761.702v-160.046l100.77-173.384h-100.77v-453.465h-786.894v453.465h-100.77l100.77 173.384v160.046h25.192zM853.58 805.881h-683.161v-90.397h683.161v90.397zM865.436 663.618h-152.637l26.674-90.397h177.829l-51.867 90.397zM659.45 663.618h-121.517v-90.397h148.191l-26.674 90.397zM486.067 663.618h-139.3l-25.192-90.397h164.492v90.397zM294.9 663.618h-136.336l-51.867-90.397h161.528l26.674 90.397zM853.58 121.239v401.598h-683.161v-401.598h91.878v311.201h205.986v-311.201h385.297zM312.683 121.239h103.734v259.334h-103.734v-259.334zM607.583 276.839h103.734v103.734h-103.734v-103.734zM736.509 224.973h-180.793v207.467h207.467v-207.467h-26.674z" />
<glyph unicode="&#x1f45c;" glyph-name="Icon_20_12" d="M210.431 636.944h148.191v142.263c0 45.939 19.265 85.951 48.903 115.589s69.65 48.903 115.589 48.903c44.457 0 85.951-19.265 115.589-48.903s47.421-69.65 47.421-115.589v-142.263h152.637v-684.643h-653.522v684.643h25.192zM410.489 636.944h225.25v142.263c0 31.12-13.337 59.276-34.084 80.023-19.265 20.747-47.421 32.602-78.541 32.602s-59.276-11.855-80.023-32.602c-19.265-20.747-32.602-48.903-32.602-80.023v-142.263zM786.894 585.077h-100.77v-88.915h-50.385v88.915h-225.25v-88.915h-51.867v88.915h-121.517v-580.909h549.789v580.909zM400.116 238.31h223.768v112.625h-223.768v-112.625zM650.559 187.925h-302.31v213.395h327.502v-213.395h-25.192z" />
<glyph unicode="&#x1f464;" glyph-name="Icon_20_1" d="M512.741 887.386c56.313 0 108.179-22.229 146.709-60.758v0c37.048-37.048 60.758-88.915 60.758-146.709 0-56.313-23.711-108.179-60.758-146.709-38.53-37.048-90.397-60.758-146.709-60.758-57.795 0-109.661 23.711-148.191 60.758-37.048 37.048-60.758 90.397-60.758 146.709 0 57.795 23.711 109.661 60.758 146.709l1.482 1.482c38.53 37.048 88.915 59.276 146.709 59.276zM622.402 791.062c-28.156 28.156-66.686 45.939-109.661 45.939s-81.505-17.783-109.661-44.457l-1.482-1.482c-28.156-28.156-45.939-68.168-45.939-111.143s17.783-81.505 45.939-109.661c28.156-29.638 66.686-45.939 111.143-45.939 42.975 0 81.505 16.301 109.661 45.939 28.156 28.156 45.939 66.686 45.939 109.661s-17.783 82.987-45.939 111.143zM690.57 439.849c35.566-2.964 66.686-20.747 88.915-45.939s37.048-57.795 37.048-93.36v-152.637c0-38.53-16.301-72.614-41.493-99.288v0c-26.674-25.192-60.758-41.493-99.288-41.493h-327.502c-38.53 0-74.096 16.301-99.288 41.493l-1.482 1.482c-23.711 25.192-40.012 60.758-40.012 97.806v152.637c0 35.566 14.819 68.168 37.048 93.36s53.349 42.975 88.915 45.939c5.928 1.482 11.855-1.482 16.301-4.446 23.711-14.819 50.385-28.156 77.059-35.566s54.831-11.855 84.469-11.855h1.482c29.638 0 57.795 4.446 84.469 11.855s53.349 20.747 77.059 35.566c4.446 4.446 10.373 5.928 16.301 4.446zM742.437 359.826c-13.337 14.819-29.638 23.711-48.903 28.156-25.192-16.301-53.349-28.156-82.987-37.048-23.711-7.41-47.421-11.855-72.614-13.337v-174.865c0-14.819-11.855-25.192-25.192-25.192-14.819 0-26.674 10.373-26.674 25.192v174.865c-25.192 1.482-48.903 5.928-72.614 13.337-29.638 8.891-57.795 20.747-82.987 37.048-19.265-4.446-35.566-13.337-48.903-28.156-13.337-16.301-22.229-37.048-22.229-59.276v-152.637c0-23.711 8.891-45.939 25.192-62.24v0c16.301-16.301 38.53-26.674 63.722-26.674h327.502c23.711 0 45.939 10.373 62.24 25.192l1.482 1.482c14.819 16.301 25.192 38.53 25.192 62.24v152.637c0 22.229-8.891 42.975-22.229 59.276z" />
<glyph unicode="&#x1f499;" glyph-name="Icon_20_7" d="M333.43 665.1c-25.192 11.855-10.373 41.493 17.783 59.276 11.855 8.891 29.638 13.337 48.903 17.783 19.265 2.964 40.012 5.928 60.758 5.928 63.722 1.482 133.372-11.855 146.709-34.084 14.819-23.711 13.337-74.096 11.855-125.962-1.482-41.493-2.964-82.987 2.964-105.216 8.891 7.41 23.711 25.192 38.53 47.421 31.12 48.903 62.24 112.625 71.132 134.854 28.156 69.65 51.867 54.831 117.071 57.795 35.566 0 72.614 1.482 105.216 0 20.747 0 38.53-4.446 50.385-16.301 13.337-13.337 16.301-32.602 7.41-60.758-14.819-47.421-65.204-114.107-102.252-161.528l-25.192-32.602c-17.783-22.229-29.638-38.53-14.819-53.349 13.337-14.819 28.156-29.638 42.975-42.975 20.747-20.747 42.975-41.493 65.204-69.65 48.903-62.24 48.903-96.324 20.747-118.553-23.711-19.265-68.168-19.265-118.553-17.783-17.783 0-35.566 0-51.867 0-28.156-1.482-47.421 1.482-71.132 14.819-31.12 17.783-56.313 45.939-78.541 71.132-14.819 16.301-26.674 31.12-37.048 38.53-4.446 1.482-7.41 1.482-11.855-4.446-8.891-13.337-8.891-31.12-10.373-45.939-1.482-32.602-1.482-60.758-45.939-71.132-38.53-8.891-84.469-5.928-130.408 4.446-47.421 10.373-93.36 29.638-125.962 53.349-65.204 45.939-120.035 109.661-167.456 179.311-45.939 68.168-84.469 143.745-115.589 213.395l-8.891 19.265c-10.373 19.265-17.783 37.048-19.265 53.349 0 28.156 16.301 45.939 63.722 45.939 34.084 1.482 128.926 5.928 154.119-4.446 28.156-11.855 32.602-29.638 42.975-56.313 0 0 37.048-85.951 75.577-142.263 29.638-44.457 34.084-62.24 42.975 1.482 2.964 26.674 2.964 59.276-2.964 85.951-8.891 47.421-44.457 57.795-48.903 59.276zM397.152 688.81c17.783-17.783 29.638-42.975 35.566-72.614 5.928-32.602 5.928-71.132 2.964-102.252-2.964-25.192-8.891-45.939-16.301-59.276-4.446-8.891-10.373-16.301-16.301-20.747-20.747-13.337-41.493-8.891-62.24 7.41-13.337 10.373-26.674 28.156-40.012 47.421-41.493 62.24-81.505 152.637-81.505 152.637-2.964 8.891-7.41 25.192-16.301 28.156-8.891 4.446-77.059 2.964-114.107 1.482-37.048 0-22.229-13.337-8.891-47.421 31.12-68.168 68.168-139.3 112.625-205.986 42.975-65.204 94.842-124.48 154.119-165.974 28.156-20.747 66.686-37.048 108.179-45.939 38.53-7.41 77.059-10.373 106.698-2.964 5.928 1.482 5.928 10.373 7.41 23.711 0 20.747 1.482 45.939 17.783 71.132 26.674 38.53 53.349 38.53 82.987 17.783 14.819-10.373 31.12-26.674 47.421-45.939 19.265-22.229 41.493-47.421 65.204-60.758 14.819-8.891 25.192-8.891 44.457-8.891 17.783 0 37.048 0 53.349 0 41.493 0 77.059-1.482 87.433 7.41 2.964 1.482-4.446 14.819-29.638 47.421-19.265 25.192-40.012 44.457-60.758 63.722-14.819 14.819-29.638 28.156-45.939 45.939-41.493 47.421-19.265 77.059 13.337 118.553l25.192 32.602c13.337 19.265 130.408 155.601 82.987 157.082-31.12 1.482-66.686 0-102.252-1.482-20.747 0-40.012-1.482-59.276-1.482-2.964 0-10.373-19.265-11.855-23.711-8.891-23.711-42.975-91.878-77.059-143.745-23.711-35.566-48.903-63.722-69.65-71.132-31.12-8.891-48.903 5.928-59.276 37.048-8.891 28.156-7.41 75.577-5.928 121.517 1.482 44.457 2.964 87.433-2.964 97.806-4.446 7.41-53.349 10.373-102.252 10.373-23.711-1.482-42.975-4.446-65.204-8.891z" />
<glyph unicode="&#x1f49a;" glyph-name="Icon_20_8" d="M826.906-26.952h-628.33c-44.457 0-84.469 17.783-114.107 47.421-29.638 28.156-47.421 69.65-47.421 112.625v628.33c0 44.457 17.783 84.469 47.421 114.107s69.65 47.421 114.107 47.421h628.33c42.975 0 84.469-17.783 112.625-47.421 29.638-29.638 47.421-69.65 47.421-114.107v-628.33c0-42.975-17.783-84.469-47.421-112.625-28.156-29.638-69.65-47.421-112.625-47.421zM198.576 23.433h628.33c29.638 0 56.313 13.337 77.059 32.602 19.265 20.747 32.602 47.421 32.602 77.059v628.33c0 31.12-13.337 57.795-32.602 78.541-20.747 19.265-47.421 32.602-77.059 32.602h-628.33c-31.12 0-57.795-13.337-78.541-32.602-19.265-20.747-32.602-47.421-32.602-78.541v-628.33c0-29.638 13.337-56.313 32.602-77.059 20.747-19.265 47.421-32.602 78.541-32.602zM512.741 688.81c65.204 0 125.962-26.674 168.938-71.132 44.457-42.975 71.132-103.734 71.132-170.42 0-65.204-26.674-125.962-71.132-168.938-42.975-44.457-103.734-71.132-168.938-71.132-66.686 0-127.444 26.674-170.42 71.132-44.457 42.975-71.132 103.734-71.132 168.938 0 66.686 26.674 127.444 71.132 170.42 42.975 44.457 103.734 71.132 170.42 71.132zM646.113 582.113c-34.084 34.084-81.505 54.831-133.372 54.831-53.349 0-100.77-20.747-134.854-54.831s-54.831-81.505-54.831-134.854c0-51.867 20.747-99.288 54.831-133.372s81.505-54.831 134.854-54.831c51.867 0 99.288 20.747 133.372 54.831s54.831 81.505 54.831 133.372c0 53.349-20.747 100.77-54.831 134.854zM791.34 823.664c26.674 0 50.385-10.373 68.168-28.156s28.156-41.493 28.156-68.168c0-26.674-10.373-51.867-28.156-69.65s-41.493-28.156-68.168-28.156c-26.674 0-51.867 10.373-69.65 28.156-16.301 17.783-28.156 42.975-28.156 69.65s11.855 50.385 28.156 68.168c17.783 17.783 42.975 28.156 69.65 28.156zM822.46 758.46c-7.41 8.891-19.265 13.337-31.12 13.337-13.337 0-25.192-4.446-32.602-13.337-8.891-7.41-13.337-19.265-13.337-31.12 0-13.337 4.446-25.192 13.337-32.602 7.41-8.891 19.265-13.337 32.602-13.337 11.855 0 23.711 4.446 31.12 13.337 8.891 7.41 13.337 19.265 13.337 32.602 0 11.855-4.446 23.711-13.337 31.12z" />
<glyph unicode="&#x1f49b;" glyph-name="Icon_20_9" d="M431.469-12.283h131.509l1.478 484.664 134.465 1.478 11.821 118.211h-146.286v25.12c0 166.973 0 174.361 147.763 175.838l1.478 115.255h-122.644c-79.792 0-119.688-33.986-140.375-85.703-20.687-56.15-20.687-132.987-20.687-205.391v-25.12l-119.688-1.478v-118.211h121.166v-484.664zM589.576-64h-208.346v486.141h-122.644v218.69l119.688 1.478c1.478 69.449 2.955 140.375 25.12 198.003 28.075 70.926 81.27 119.688 187.659 119.688h172.883l-1.478-218.69h-25.12c-112.3 0-121.166 0-121.166-99.001h150.719l-22.165-218.69-130.032-1.478v-486.141h-25.12z" />
<glyph unicode="&#x1f4ac;" glyph-name="Icon_20_4" d="M151.155 245.719h460.874l235.624-168.938v168.938h25.192c26.674 0 50.385 10.373 66.686 26.674 17.783 17.783 28.156 41.493 28.156 68.168v407.525c0 26.674-10.373 50.385-26.674 68.168-17.783 16.301-41.493 26.674-68.168 26.674h-721.69c-26.674 0-50.385-10.373-66.686-26.674-17.783-17.783-28.156-41.493-28.156-68.168v-407.525c0-26.674 10.373-50.385 28.156-68.168 16.301-16.301 40.012-26.674 66.686-26.674zM595.728 193.852h-444.573c-40.012 0-77.059 16.301-103.734 42.975s-42.975 62.24-42.975 103.734v407.525c0 41.493 16.301 77.059 42.975 103.734s63.722 42.975 103.734 42.975h721.69c40.012 0 77.059-16.301 103.734-42.975s42.975-62.24 42.975-103.734v-407.525c0-41.493-16.301-77.059-42.975-103.734-20.747-20.747-47.421-35.566-77.059-40.012v-219.323l-303.792 216.359zM232.66 663.618h569.054v-51.867h-569.054v51.867zM232.66 487.271h284.527v-51.867h-284.527v51.867z" />
<glyph unicode="&#x1f4b4;" glyph-name="Icon_20_15" d="M303.792 156.805h-291.936v582.391h291.936c59.276 41.493 130.408 66.686 208.949 66.686 77.059 0 148.191-25.192 207.467-66.686h291.936v-582.391h-291.936c-57.795-41.493-130.408-66.686-207.467-66.686-78.541 0-149.673 25.192-208.949 66.686zM511.259 485.789c29.638 0 51.867-7.41 69.65-22.229 17.783-16.301 26.674-37.048 26.674-63.722 0-32.602-10.373-56.313-29.638-74.096s-47.421-26.674-84.469-26.674c-32.602 0-57.795 5.928-75.577 16.301v42.975c10.373-5.928 22.229-10.373 37.048-14.819 13.337-2.964 26.674-4.446 38.53-4.446 20.747 0 37.048 4.446 48.903 14.819 10.373 8.891 16.301 22.229 16.301 41.493 0 34.084-22.229 51.867-66.686 51.867-5.928 0-14.819 0-23.711-1.482s-17.783-2.964-23.711-4.446l-20.747 11.855 10.373 143.745h152.637v-42.975h-111.143l-5.928-71.132c4.446 0 10.373 1.482 16.301 1.482 7.41 1.482 14.819 1.482 25.192 1.482zM63.722 208.671h182.275c-56.313 63.722-91.878 146.709-91.878 238.588 0 93.36 35.566 176.347 91.878 240.069h-182.275v-478.657zM961.76 687.329h-183.757c56.313-63.722 91.878-146.709 91.878-240.069 0-91.878-35.566-174.865-91.878-238.588h183.757v478.657zM729.1 665.1c-56.313 54.831-131.89 88.915-216.359 88.915-85.951 0-161.528-34.084-217.841-88.915-54.831-56.313-88.915-131.89-88.915-217.841 0-84.469 34.084-160.046 88.915-216.359 56.313-54.831 131.89-88.915 217.841-88.915 84.469 0 160.046 34.084 216.359 88.915 54.831 56.313 88.915 131.89 88.915 216.359 0 85.951-34.084 161.528-88.915 217.841z" />
<glyph unicode="&#x1f4b5;" glyph-name="Icon_20_16" d="M303.792 156.805h-291.936v582.391h291.936c59.276 41.493 130.408 66.686 208.949 66.686 77.059 0 148.191-25.192 207.467-66.686h291.936v-582.391h-291.936c-57.795-41.493-130.408-66.686-207.467-66.686-78.541 0-149.673 25.192-208.949 66.686zM428.272 302.032h-47.421v188.203c0 22.229 0 40.012 1.482 53.349-2.964-2.964-7.41-5.928-11.855-10.373s-19.265-16.301-44.457-37.048l-23.711 29.638 85.951 68.168h40.012v-291.936zM721.69 447.259c0-50.385-8.891-87.433-25.192-112.625s-40.012-37.048-74.096-37.048c-32.602 0-57.795 13.337-74.096 38.53s-25.192 62.24-25.192 111.143c0 51.867 7.41 90.397 23.711 114.107 16.301 25.192 41.493 37.048 75.577 37.048 32.602 0 57.795-13.337 74.096-38.53s25.192-62.24 25.192-112.625zM570.535 447.259c0-40.012 4.446-68.168 11.855-84.469 8.891-17.783 22.229-26.674 40.012-26.674s31.12 8.891 40.012 26.674c7.41 17.783 11.855 45.939 11.855 84.469 0 40.012-4.446 68.168-11.855 85.951-8.891 17.783-22.229 26.674-40.012 26.674s-31.12-8.891-40.012-26.674c-7.41-16.301-11.855-45.939-11.855-85.951zM63.722 208.671h182.275c-56.313 63.722-91.878 146.709-91.878 238.588 0 93.36 35.566 176.347 91.878 240.069h-182.275v-478.657zM961.76 687.329h-183.757c56.313-63.722 91.878-146.709 91.878-240.069 0-91.878-35.566-174.865-91.878-238.588h183.757v478.657zM729.1 665.1c-56.313 54.831-131.89 88.915-216.359 88.915-85.951 0-161.528-34.084-217.841-88.915-54.831-56.313-88.915-131.89-88.915-217.841 0-84.469 34.084-160.046 88.915-216.359 56.313-54.831 131.89-88.915 217.841-88.915 84.469 0 160.046 34.084 216.359 88.915 54.831 56.313 88.915 131.89 88.915 216.359 0 85.951-34.084 161.528-88.915 217.841z" />
<glyph unicode="&#x1f4b6;" glyph-name="Icon_20_17" d="M429.754 303.514h-47.421l1.482 243.033-56.313-47.421-23.711 29.638 85.951 68.168h40.012v-293.418zM303.792 156.805h-291.936v582.391h291.936c57.795 41.493 130.408 66.686 208.949 66.686 77.059 0 148.191-25.192 207.467-66.686h291.936v-582.391h-291.936c-57.795-41.493-130.408-66.686-207.467-66.686-78.541 0-149.673 25.192-208.949 66.686zM63.722 208.671h182.275c-56.313 63.722-91.878 146.709-91.878 238.588 0 93.36 35.566 176.347 91.878 240.069h-182.275v-478.657zM961.76 687.329h-183.757c56.313-63.722 91.878-146.709 91.878-240.069 0-91.878-35.566-174.865-91.878-238.588h183.757v478.657zM729.1 665.1c-56.313 54.831-131.89 88.915-216.359 88.915-85.951 0-161.528-34.084-217.841-88.915-54.831-56.313-88.915-131.89-88.915-217.841 0-84.469 34.084-160.046 88.915-216.359 56.313-54.831 131.89-88.915 217.841-88.915 84.469 0 160.046 34.084 216.359 88.915 54.831 56.313 88.915 131.89 88.915 216.359 0 85.951-34.084 161.528-88.915 217.841zM623.884 485.789c29.638 0 53.349-7.41 69.65-22.229 17.783-16.301 26.674-37.048 26.674-63.722 0-32.602-10.373-56.313-29.638-74.096s-47.421-26.674-82.987-26.674c-32.602 0-59.276 5.928-77.059 16.301v42.975c10.373-5.928 23.711-10.373 37.048-14.819 13.337-2.964 26.674-4.446 38.53-4.446 22.229 0 38.53 4.446 48.903 14.819 10.373 8.891 16.301 22.229 16.301 41.493 0 34.084-22.229 51.867-66.686 51.867-5.928 0-13.337 0-23.711-1.482-8.891-1.482-16.301-2.964-23.711-4.446l-20.747 11.855 11.855 143.745h151.155v-42.975h-111.143l-5.928-71.132c4.446 0 10.373 1.482 17.783 1.482 5.928 1.482 14.819 1.482 23.711 1.482z" />
<glyph unicode="&#x1f4cd;" glyph-name="Icon_20_5" d="M743.919 470.97c11.855 19.265 20.747 41.493 28.156 65.204 5.928 22.229 8.891 47.421 8.891 71.132 0 75.577-29.638 142.263-78.541 191.166s-115.589 78.541-189.685 78.541c-75.577 0-142.263-29.638-191.166-78.541s-78.541-115.589-78.541-191.166c0-23.711 2.964-48.903 8.891-71.132 7.41-23.711 16.301-45.939 29.638-66.686l231.178-400.116 231.178 401.598zM820.978 522.836c-7.41-28.156-19.265-54.831-34.084-78.541l-274.153-475.693-275.635 475.693c-14.819 23.711-25.192 50.385-34.084 78.541-7.41 26.674-11.855 56.313-11.855 84.469 0 88.915 37.048 168.938 94.842 226.732s137.818 93.36 226.732 93.36c87.433 0 167.456-35.566 225.25-93.36s94.842-137.818 94.842-226.732c0-28.156-4.446-56.313-11.855-84.469zM512.741 756.978c40.012 0 77.059-16.301 105.216-44.457 26.674-26.674 42.975-63.722 42.975-105.216 0-40.012-16.301-77.059-42.975-105.216-28.156-26.674-65.204-42.975-105.216-42.975-41.493 0-78.541 16.301-105.216 42.975-28.156 28.156-44.457 65.204-44.457 105.216 0 41.493 16.301 78.541 44.457 105.216 26.674 28.156 63.722 44.457 105.216 44.457zM580.909 676.955c-17.783 17.783-41.493 28.156-68.168 28.156-28.156 0-51.867-10.373-69.65-28.156s-28.156-41.493-28.156-69.65c0-26.674 10.373-50.385 28.156-68.168s41.493-28.156 69.65-28.156c26.674 0 50.385 10.373 68.168 28.156s28.156 41.493 28.156 68.168c0 28.156-10.373 51.867-28.156 69.65z" />
<glyph unicode="&#x1f4e7;" glyph-name="Icon_20_3" d="M170.42 802.918h683.161c42.975 0 82.987-17.783 112.625-47.421l2.964-1.482c28.156-29.638 44.457-69.65 44.457-112.625v-386.779c0-44.457-17.783-84.469-45.939-112.625l-1.482-2.964c-29.638-28.156-69.65-45.939-112.625-45.939h-683.161c-42.975 0-82.987 17.783-112.625 47.421l-1.482 1.482c-28.156 29.638-45.939 69.65-45.939 112.625v386.779c0 42.975 16.301 82.987 45.939 112.625l1.482 1.482c29.638 29.638 69.65 47.421 112.625 47.421zM853.58 751.051h-683.161c-20.747 0-40.012-5.928-56.313-16.301l294.9-294.9c28.156-28.156 65.204-42.975 103.734-42.975 37.048 0 74.096 14.819 102.252 42.975l294.9 294.9c-16.301 10.373-35.566 16.301-56.313 16.301zM963.242 641.389c0 20.747-5.928 40.012-16.301 57.795l-250.443-251.925 250.443-250.443c10.373 17.783 16.301 37.048 16.301 57.795v386.779zM853.58 144.949c20.747 0 40.012 5.928 56.313 16.301l-250.443 250.443-7.41-7.41c-38.53-38.53-88.915-57.795-139.3-57.795-51.867 0-102.252 19.265-140.781 57.795l-7.41 7.41-250.443-250.443c16.301-10.373 35.566-16.301 56.313-16.301h683.161zM60.758 254.611c0-20.747 5.928-40.012 16.301-57.795l250.443 250.443-250.443 251.925c-10.373-17.783-16.301-37.048-16.301-57.795v-386.779z" />
<glyph unicode="&#x1f4f1;" glyph-name="Icon_20_2" d="M323.056 951.109h377.887c42.975 0 82.987-17.783 111.143-45.939s45.939-68.168 45.939-111.143v-692.052c0-42.975-17.783-82.987-45.939-111.143s-68.168-45.939-111.143-45.939h-377.887c-42.975 0-82.987 17.783-111.143 45.939l-1.482 1.482c-28.156 28.156-44.457 68.168-44.457 109.661v692.052c0 42.975 17.783 81.505 45.939 111.143v0c29.638 28.156 68.168 45.939 111.143 45.939zM700.944 900.724h-377.887c-29.638 0-56.313-11.855-75.577-31.12-19.265-20.747-31.12-47.421-31.12-75.577v-692.052c0-28.156 11.855-54.831 29.638-74.096l1.482-1.482c19.265-19.265 45.939-31.12 75.577-31.12h377.887c29.638 0 56.313 11.855 75.577 31.12 19.265 20.747 31.12 47.421 31.12 75.577v692.052c0 28.156-11.855 54.831-31.12 74.096-19.265 20.747-45.939 32.602-75.577 32.602zM330.466 272.394h363.068v518.669h-363.068v-518.669zM718.726 220.527h-413.453c-13.337 0-25.192 11.855-25.192 26.674v569.054c0 13.337 11.855 25.192 25.192 25.192h413.453c13.337 0 25.192-11.855 25.192-25.192v-569.054c0-14.819-11.855-26.674-25.192-26.674zM512.741 179.033c17.783 0 35.566-8.891 48.903-20.747 11.855-13.337 19.265-29.638 19.265-48.903s-7.41-37.048-19.265-48.903l-1.482-1.482c-11.855-11.855-29.638-19.265-47.421-19.265-19.265 0-37.048 7.41-50.385 20.747v0c-11.855 13.337-19.265 29.638-19.265 48.903s7.41 35.566 19.265 48.903l1.482 1.482c13.337 11.855 29.638 19.265 48.903 19.265zM524.596 122.721c-2.964 2.964-7.41 4.446-11.855 4.446-5.928 0-10.373-1.482-13.337-4.446v0c-4.446-4.446-5.928-8.891-5.928-13.337 0-5.928 1.482-10.373 4.446-13.337h1.482c2.964-2.964 7.41-5.928 13.337-5.928 4.446 0 8.891 2.964 11.855 5.928v0c4.446 2.964 5.928 7.41 5.928 13.337 0 4.446-1.482 8.891-5.928 13.337z" />
<glyph unicode="&#x1f50d;" glyph-name="Icon_20_6" d="M619.438 376.127l204.504-204.504c10.373-10.373 10.373-26.674 0-35.566-8.891-10.373-25.192-10.373-35.566 0l-204.504 204.504c-41.493-34.084-94.842-53.349-151.155-53.349-66.686 0-127.444 26.674-170.42 69.65-42.975 44.457-71.132 103.734-71.132 170.42s28.156 127.444 71.132 170.42c42.975 42.975 103.734 71.132 170.42 71.132s125.962-28.156 170.42-71.132c42.975-44.457 69.65-103.734 69.65-170.42 0-32.602-5.928-63.722-17.783-91.878-8.891-20.747-20.747-41.493-35.566-59.276zM566.090 662.136c-34.084 34.084-81.505 54.831-133.372 54.831s-99.288-20.747-134.854-54.831c-34.084-35.566-54.831-82.987-54.831-134.854s20.747-99.288 54.831-133.372c35.566-34.084 82.987-56.313 134.854-56.313s99.288 22.229 133.372 56.313c17.783 17.783 32.602 38.53 41.493 60.758s14.819 47.421 14.819 72.614c0 51.867-22.229 99.288-56.313 134.854z" />
<glyph unicode="&#x1f69a;" glyph-name="Icon_20_10" d="M165.974 260.538h-56.313c-19.265 0-38.53 7.41-51.867 20.747s-20.747 32.602-20.747 51.867v320.093c0 19.265 7.41 38.53 20.747 51.867s32.602 20.747 51.867 20.747h635.74c57.795 0 80.023-45.939 102.252-97.806 7.41-17.783 16.301-34.084 25.192-50.385 10.373-17.783 29.638-34.084 48.903-48.903 34.084-28.156 65.204-54.831 65.204-96.324v-99.288c0-19.265-7.41-38.53-20.747-51.867s-32.602-20.747-51.867-20.747h-35.566c-4.446-22.229-14.819-41.493-31.12-56.313-20.747-22.229-48.903-34.084-81.505-34.084s-60.758 11.855-81.505 34.084c-16.301 14.819-26.674 34.084-31.12 56.313h-260.816c-4.446-22.229-16.301-41.493-31.12-56.313-20.747-22.229-50.385-34.084-82.987-34.084-31.12 0-60.758 11.855-81.505 34.084-14.819 14.819-26.674 34.084-31.12 56.313zM109.661 310.923h56.313c4.446 22.229 16.301 41.493 31.12 56.313 20.747 20.747 50.385 34.084 81.505 34.084 32.602 0 62.24-13.337 82.987-34.084 14.819-14.819 26.674-34.084 31.12-56.313h260.816c4.446 22.229 14.819 41.493 31.12 56.313 20.747 20.747 48.903 34.084 81.505 34.084s60.758-13.337 81.505-34.084c16.301-14.819 26.674-34.084 31.12-56.313h35.566c5.928 0 11.855 2.964 14.819 7.41 4.446 2.964 7.41 8.891 7.41 14.819v99.288c0 17.783-23.711 37.048-47.421 56.313-22.229 19.265-44.457 37.048-60.758 62.24-10.373 17.783-19.265 37.048-26.674 54.831-16.301 37.048-31.12 69.65-56.313 69.65h-635.74c-5.928 0-10.373-2.964-14.819-7.41-4.446-2.964-7.41-8.891-7.41-14.819v-320.093c0-5.928 2.964-11.855 7.41-14.819 4.446-4.446 8.891-7.41 14.819-7.41zM766.148 220.527c17.783 0 34.084 7.41 45.939 19.265s19.265 28.156 19.265 45.939c0 17.783-7.41 34.084-19.265 45.939s-28.156 19.265-45.939 19.265c-17.783 0-34.084-7.41-45.939-19.265s-19.265-28.156-19.265-45.939c0-17.783 7.41-34.084 19.265-45.939s28.156-19.265 45.939-19.265zM278.599 220.527c19.265 0 35.566 7.41 45.939 19.265 11.855 11.855 19.265 28.156 19.265 45.939s-7.41 34.084-19.265 45.939c-10.373 11.855-26.674 19.265-45.939 19.265-17.783 0-34.084-7.41-45.939-19.265-10.373-11.855-17.783-28.156-17.783-45.939s7.41-34.084 17.783-45.939c11.855-11.855 28.156-19.265 45.939-19.265zM269.708 525.8h423.826v-51.867h-423.826v51.867z" />
</font>
</defs>
</svg>
