<svg xmlns="http://www.w3.org/2000/svg" viewBox="0 0 80 80"><defs><style>.a,.b{fill:none;}.b{stroke:#676767;stroke-miterlimit:22.926;stroke-width:2.995px;fill-rule:evenodd;}</style></defs><g transform="translate(-1385 -1492)"><rect class="a" width="80" height="80" transform="translate(1385 1492)"/><path class="b" d="M40.518,4.143a15.7,15.7,0,1,1-15.71,15.694A15.694,15.694,0,0,1,40.518,4.143ZM55.654,40.072A9.922,9.922,0,0,1,64.513,49.9V72.384a3.2,3.2,0,0,1-3.187,3.187H19.693a3.2,3.2,0,0,1-3.187-3.187V49.9a9.91,9.91,0,0,1,8.859-9.831L40.5,44.613l15.152-4.541ZM24.808,19.837c5.832-.494,9.209-6.883,13.7-9.719-.781,7.807,9.942,10.564,17.7,9.719M40.5,75.571V57.821M55.654,40.072c0,9.8-6.787,17.749-15.152,17.749S25.365,49.871,25.365,40.072M44.66,62.936h3.585M44.66,69.771h3.585" transform="translate(1385 1492)"/></g></svg>