<svg xmlns="http://www.w3.org/2000/svg" viewBox="0 0 80 80"><defs><style>.a,.b{fill:none;}.b{stroke:#676767;stroke-linejoin:round;stroke-miterlimit:22.926;stroke-width:2.995px;fill-rule:evenodd;}</style></defs><g transform="translate(-765 -1492)"><rect class="a" width="80" height="80" transform="translate(765 1492)"/><path class="b" d="M40.008,9.815c5.768.048,14.69.462,19.12,2.772,2.517,1.322,4.86,6.1,7.5,11.806l3.043-1.37H77.1v5.624H68.592c1.689,3.6,3.3,6.867,4.732,8.6,1.338,1.625,3.011,2.964,3.011,6.166V68.847A1.346,1.346,0,0,1,75,70.185H66.011a1.346,1.346,0,0,1-1.338-1.338V64.641H15.328v4.206a1.346,1.346,0,0,1-1.338,1.338H5a1.333,1.333,0,0,1-1.322-1.338V43.418c0-3.2,1.657-4.541,3.011-6.166,1.434-1.737,3.027-5,4.716-8.6H2.9V23.023h7.425l3.059,1.37c2.629-5.7,4.971-10.484,7.489-11.806,4.429-2.31,13.352-2.725,19.136-2.772ZM16.029,57.279H62.92M40.008,16c-4.6.032-11.36.351-15.152,1.561-2.2.7-5.115,7.887-7.775,13.687H62.92c-2.661-5.8-5.577-12.985-7.759-13.687C51.368,16.347,44.6,16.029,40.008,16ZM62.155,40.9a4.445,4.445,0,1,1-4.445,4.445A4.447,4.447,0,0,1,62.155,40.9Zm-44.31,0a4.445,4.445,0,1,0,4.461,4.445A4.447,4.447,0,0,0,17.845,40.9Z" transform="translate(765 1492)"/></g></svg>