<svg xmlns="http://www.w3.org/2000/svg" viewBox="0 0 80 80"><defs><style>.a,.b{fill:none;}.b{stroke:#676767;stroke-miterlimit:22.926;stroke-width:2.995px;fill-rule:evenodd;}</style></defs><g transform="translate(-455 -1492)"><rect class="a" width="80" height="80" transform="translate(455 1492)"/><path class="b" d="M4.413,75.587H40.008V4.413H4.413V75.587Zm35.595,0H75.587v-49.6H40.008ZM11.536,62.027h7.122V54.905H11.536Zm14.228,0h7.122V54.905H25.764v7.122ZM11.536,47.56h7.122V40.438H11.536Zm14.228,0h7.122V40.438H25.764V47.56ZM11.536,33.109h7.122V25.987H11.536Zm14.228,0h7.122V25.987H25.764v7.122ZM11.536,18.642h7.122V11.536H11.536Zm14.228,0h7.122V11.536H25.764v7.106ZM47.114,47.56h7.122V40.454H47.114Zm0,14.467h7.122V54.905H47.114Zm14.244,0h7.106V54.905H61.358v7.122Zm0-14.467h7.106V40.454H61.358V47.56ZM40.008,33.109H75.587" transform="translate(455 1492)"/></g></svg>