<svg xmlns="http://www.w3.org/2000/svg" viewBox="-179.233 0 78.465 40">
  <defs>
    <style>
      .cls-1 {
        fill: #646464;
        fill-rule: evenodd;
      }
    </style>
  </defs>
  <g id="Logo" transform="translate(-180 -0.001)">
    <path id="Path_87" data-name="Path 87" class="cls-1" d="M35.938,22a8.431,8.431,0,0,0-2.714,2.724,48,48,0,0,0-3.009,4.1,63.54,63.54,0,0,0-4.028,7,72.853,72.853,0,0,1,5.853-11.971c.206-.475-1.11-1.84-1.739-1.513a27.685,27.685,0,0,0-1.649,2.81,5.263,5.263,0,0,0-.094-.615A2.586,2.586,0,0,0,25.692,23.2c-2.922.546-7.577,10.928-3.712,11.053.66.207,1.512-.206,2.388-.988a10.729,10.729,0,0,0,.8-.8c-1.251,3-2.116,5.718-1.718,6.663.37.876,1,.947,1.8.818-.18-1.347,4.543-9.274,5.523-10.757q.314-.473.623-.925a6.162,6.162,0,0,0-.231.944c-.428,2.806,1.885,3.628,4.159,2.234,1.581-.969,3.355-3.9,4.093-6.519a3.835,3.835,0,0,0,.408,0,3.579,3.579,0,0,0,1.3-.323c-1.089,1.862-2.035,3.958-1.408,5.25.423.872,1.8,1.129,2.055.631.412-.813.948-1.767,1.567-2.774S44.654,25.639,45.4,24.6q.14-.2.284-.391t.287-.387A15.638,15.638,0,0,0,44.8,26.687a3.576,3.576,0,0,0-.062,2.229,1.477,1.477,0,0,0,1.087.849.887.887,0,0,0,.975-.274,47.679,47.679,0,0,1,3.775-6.075q.3-.418.616-.827t.629-.8c-1.283,2.275-2.361,4.819-1.8,6.145a1.462,1.462,0,0,0,1.081.849.887.887,0,0,0,.98-.3,26.481,26.481,0,0,1,1.843-3.014c.755-1.087,1.624-2.223,2.535-3.306q.366-.437.74-.859t.748-.824a17.494,17.494,0,0,0-2.026,4.674c-.309,1.385-.135,2.417.878,2.56.668.245,1.539-.17,2.438-.971a12.978,12.978,0,0,0,1.624-1.8,2.17,2.17,0,0,0,.2.928,1.46,1.46,0,0,0,1.8.816,5.857,5.857,0,0,1,.533-3.071,14.668,14.668,0,0,1,1.752-3,.751.751,0,0,0-.185-.626,2.731,2.731,0,0,0-.671-.675,3.6,3.6,0,0,0,.1-.724,3.011,3.011,0,0,0-.064-.725,1.841,1.841,0,0,0-.934-1.01,2.865,2.865,0,0,0-1.93-.325,1.625,1.625,0,0,0-.618.307,5.521,5.521,0,0,0-.736.668,25.493,25.493,0,0,0-2.057,1.9c-.7.718-1.411,1.505-2.1,2.321-.816.972-1.6,1.985-2.3,2.972a32.025,32.025,0,0,0-1.8,2.808,14.2,14.2,0,0,1,1.863-4.561,39.273,39.273,0,0,1,2.4-3.588c.206-.475-1.11-1.839-1.738-1.512-.08.106-.166.225-.258.354s-.192.269-.3.418a31.276,31.276,0,0,0-3.774,4.4c-.685.941-1.337,1.91-1.926,2.845s-1.115,1.836-1.549,2.641c.432-2.846,3.107-6.613,4.261-8.164.206-.475-1.11-1.839-1.738-1.513-.141.19-.305.417-.486.675s-.378.546-.584.858c-.533.553-1.07,1.166-1.6,1.815s-1.051,1.335-1.553,2.032a50.074,50.074,0,0,0-3.371,5.361,8.065,8.065,0,0,1,.813-2.564A15.475,15.475,0,0,1,43.79,24.6c.22-.507-1.158-1.683-1.529-1.621-.478.08-.918,1.2-2.478,1.284-.069,0-.138.005-.207,0a5.4,5.4,0,0,0,.038-2.656,1.055,1.055,0,0,0-1.366-.755,1.93,1.93,0,0,0-.454.144,2.06,2.06,0,0,0-1.06,1.153.848.848,0,0,0-.8-.154Zm-23.516-.193C13.21,16.062,19.876,3.918,21.1,2.27c.206-.475-1.11-1.839-1.738-1.513l-.153.218c-2.8,4.129-6.18,9.947-10.606,15.294-1.556.35-3.106.808-4.911,1.242-.514.4.341,1.842.818,1.727.719-.243,1.443-.489,2.173-.73C4.961,20.452,3.693,21.97,2.579,23.2c-1.244,1.373-1.2,1.994.862,1.569C5.161,22.5,6.884,20.2,8.6,17.893c.865-.267,1.738-.521,2.621-.751a24.441,24.441,0,0,0-.992,3.309c-.632,3.063,2.066,3.055,2.415,2.364a48.011,48.011,0,0,1,4.044-6.442c.7-.948,1.438-1.859,2.169-2.666-2.351,4.351-6.118,12.492-5.364,14.279.21.5,1.563,1.4,1.795.782.349-.975.769-2.01,1.239-3.074A79.972,79.972,0,0,1,20.954,17.2c1.886-3.144,3.649-5.613,4.538-6.208.064,1.941-.958,6.349-4.23,8.572-.539.421.429,1.986.885,1.7,1.393-.367,3.048-1.693,4.67-3.352.345-.354.689-.723,1.03-1.1l0,.018c-.429,2.805,1.885,3.628,4.159,2.234,1.58-.969,3.355-3.9,4.093-6.519a3.516,3.516,0,0,0,.408,0,3.558,3.558,0,0,0,1.3-.323c-1.089,1.862-2.035,3.958-1.408,5.25.423.872,1.8,1.129,2.054.631a47.465,47.465,0,0,1,3.635-5.882q.283-.393.572-.778c-1.006,1.969-1.709,3.968-1.235,5.091.412.976,1.8,1.1,2.062.574a47.659,47.659,0,0,1,3.775-6.075c.405-.557.822-1.1,1.244-1.629-1.283,2.276-2.361,4.819-1.8,6.145.414.982,1.784,1.1,2.061.549A36.7,36.7,0,0,1,53.14,9.771c.488-.581.988-1.147,1.488-1.683-1.844,3.1-3.175,6.95-1.147,7.235.668.245,1.54-.17,2.438-.972a12.9,12.9,0,0,0,1.624-1.8,2.177,2.177,0,0,0,.2.928c.445.917,1.713,1.152,2.048.487a47.142,47.142,0,0,1,3.446-5.616c-.776,1.683-1.236,3.293-.829,4.259.2.464,1.466,1.418,1.811.738A48.528,48.528,0,0,1,68.659,6.4a30.074,30.074,0,0,1,2.527-2.926c-1.655,2.575-3.675,6.331-2.951,8.047.256.607,1.567,1.3,1.8.837l.1-.188a48.808,48.808,0,0,1,4.376-6.821,28.58,28.58,0,0,1,2.839-3.231C73.331,9.016,70.389,19.807,71.27,21.9a2.185,2.185,0,0,0,2.072,1.276c-.835-4.31,2.417-14.825,6.849-21.289.178-.41-.78-1.485-1.45-1.558a.328.328,0,0,0-.294.039A21.756,21.756,0,0,0,73.982,4.95a51.133,51.133,0,0,0-3.868,5.862c.568-2.8,3.095-6.359,4.207-7.854.169-.39-.689-1.381-1.35-1.541a.332.332,0,0,0-.375,0A21.747,21.747,0,0,0,68.133,6a51.169,51.169,0,0,0-3.82,5.776c.615-2.785,3.085-6.259,4.181-7.733.206-.475-1.11-1.84-1.738-1.513-.367.493-.891,1.241-1.452,2.118A39.356,39.356,0,0,0,62.817,7.8,50.1,50.1,0,0,0,59.551,13a11.66,11.66,0,0,1,2.272-4.769c.129-.3-.335-.939-.855-1.3A3.29,3.29,0,0,0,61,5.482a2.586,2.586,0,0,0-2.864-1.335,3.061,3.061,0,0,0-1.354.975,33.341,33.341,0,0,0-4.152,4.225,40.23,40.23,0,0,0-4.1,5.779c.44-2.845,3.107-6.6,4.259-8.149.206-.475-1.11-1.839-1.738-1.513-.159.213-.346.474-.554.772a31.261,31.261,0,0,0-3.773,4.4,50.3,50.3,0,0,0-3.475,5.488c.432-2.847,3.108-6.614,4.261-8.164.206-.475-1.11-1.84-1.738-1.513-.283.379-.657.909-1.071,1.533a35.581,35.581,0,0,0-3.151,3.846,49.96,49.96,0,0,0-3.371,5.361,11.28,11.28,0,0,1,2.3-4.975c.188-.434-.986-1.646-1.54-1.6-.394.031-.954,1.179-2.467,1.265-.07,0-.139.005-.207,0A5.406,5.406,0,0,0,36.3,9.226a1.054,1.054,0,0,0-1.366-.755,1.919,1.919,0,0,0-.453.143,2.062,2.062,0,0,0-1.06,1.153.846.846,0,0,0-.8-.154c-1.371.627-3.414,3.354-4.338,5.682-.629.744-1.284,1.476-1.942,2.15-.53.542-1.061,1.046-1.581,1.488,1.742-2.252,2.906-5.387,2.661-7.284A2.878,2.878,0,0,0,26,10.225c-1.208-.6-5.152,5.861-5.615,6.634a81.428,81.428,0,0,0-4.255,8.1,72.659,72.659,0,0,1,5.953-12.249c.206-.475-1.11-1.839-1.738-1.513-.069.094-.151.213-.243.354a27.96,27.96,0,0,0-3.947,4.429,50.49,50.49,0,0,0-3.734,5.831Zm17.394-3.775c-.353-1.877,2.3-5.423,3.8-6.491a2.368,2.368,0,0,0,.525.57c-.825,3.026-2.641,6.562-3.831,6.655C30.125,18.782,29.9,18.509,29.816,18.033ZM54.284,14.66c.395-3.028,3.29-7.841,5.452-9.288.052.886-.382,1.992-2.03,3.419-.373.291-.024,1.131.377,1.525-.094.224-.178.446-.251.664a14.283,14.283,0,0,1-2.355,2.876,4.152,4.152,0,0,1-1.193.8ZM14.111,10.438c-.856,1.783-1.68,3.616-2.361,5.32-.6.054-1.172.132-1.735.229Q12.075,13.205,14.111,10.438ZM57.6,27.048a15.23,15.23,0,0,1,2.064-5.237,13.351,13.351,0,0,1,3.389-4.052c.052.886-.381,1.992-2.029,3.419-.373.291-.024,1.131.377,1.525-.094.224-.178.446-.251.664a14.3,14.3,0,0,1-2.356,2.876,6.164,6.164,0,0,1-.631.5A2.723,2.723,0,0,1,57.6,27.048ZM36.926,23.929a2.369,2.369,0,0,0,.525.57c-.824,3.027-2.641,6.563-3.831,6.656-.179.014-.4-.259-.489-.734-.353-1.877,2.3-5.422,3.8-6.492Zm-11.29,4.378c-.437.341.117,1.435.586,1.684a14.163,14.163,0,0,1-2.293,2.78,3.67,3.67,0,0,1-1.331.848c.2-2.994,1.771-7.6,4.7-9.192a4.479,4.479,0,0,1-1.656,3.881ZM50.883.033a1.271,1.271,0,0,1-.743,1.5C46.035,1.57,37.683,2.961,31.889,4.4c-1.275-.84-2.017-1.986.053-2.372A80.831,80.831,0,0,1,50.883.033Z" transform="translate(-0.98 0)"/>
  </g>
</svg>
